<?xml version="1.0" encoding="UTF-8" standalone="no"?>
<svg width="32px" height="32px" viewBox="0 0 32 32" version="1.1" xmlns="http://www.w3.org/2000/svg" xmlns:xlink="http://www.w3.org/1999/xlink">
    <!-- Generator: Sketch 44.1 (41455) - http://www.bohemiancoding.com/sketch -->
    <title>Menu 4</title>
    <desc>Created with Sketch.</desc>
    <defs></defs>
    <g id="Page-2-Copy" stroke="none" stroke-width="1" fill="none" fill-rule="evenodd">
        <g id="131" stroke="#979797" fill-rule="nonzero" fill="#95909E">
            <path d="M24,25.9981014 L24,30.0018986 C24,31.1054196 24.8867064,32 25.9981014,32 L30.0018986,32 C31.1054196,32 32,31.1132936 32,30.0018986 L32,25.9981014 C32,24.8945804 31.1132936,24 30.0018986,24 L25.9981014,24 C24.8945804,24 24,24.8867064 24,25.9981014 Z M6.00189865,2 C6.00478245,2 6,6.00189865 6,6.00189865 C6,6.00478245 1.99810135,6 1.99810135,6 C1.99521755,6 2,1.99810135 2,1.99810135 C2,1.99521755 6.00189865,2 6.00189865,2 Z M18.0018986,2 C18.0047824,2 18,6.00189865 18,6.00189865 C18,6.00478245 13.9981014,6 13.9981014,6 C13.9952176,6 14,1.99810135 14,1.99810135 C14,1.99521755 18.0018986,2 18.0018986,2 Z M30.0018986,2 C30.0047824,2 30,6.00189865 30,6.00189865 C30,6.00478245 25.9981014,6 25.9981014,6 C25.9952176,6 26,1.99810135 26,1.99810135 C26,1.99521755 30.0018986,2 30.0018986,2 Z M6.00189865,14 C6.00478245,14 6,18.0018986 6,18.0018986 C6,18.0047824 1.99810135,18 1.99810135,18 C1.99521755,18 2,13.9981014 2,13.9981014 C2,13.9952176 6.00189865,14 6.00189865,14 Z M18.0018986,14 C18.0047824,14 18,18.0018986 18,18.0018986 C18,18.0047824 13.9981014,18 13.9981014,18 C13.9952176,18 14,13.9981014 14,13.9981014 C14,13.9952176 18.0018986,14 18.0018986,14 Z M30.0018986,14 C30.0047824,14 30,18.0018986 30,18.0018986 C30,18.0047824 25.9981014,18 25.9981014,18 C25.9952176,18 26,13.9981014 26,13.9981014 C26,13.9952176 30.0018986,14 30.0018986,14 Z M6.00189865,26 C6.00478245,26 6,30.0018986 6,30.0018986 C6,30.0047824 1.99810135,30 1.99810135,30 C1.99521755,30 2,25.9981014 2,25.9981014 C2,25.9952176 6.00189865,26 6.00189865,26 Z M18.0018986,26 C18.0047824,26 18,30.0018986 18,30.0018986 C18,30.0047824 13.9981014,30 13.9981014,30 C13.9952176,30 14,25.9981014 14,25.9981014 C14,25.9952176 18.0018986,26 18.0018986,26 Z M30.0018986,26 C30.0047824,26 30,30.0018986 30,30.0018986 C30,30.0047824 25.9981014,30 25.9981014,30 C25.9952176,30 26,25.9981014 26,25.9981014 C26,25.9952176 30.0018986,26 30.0018986,26 Z M0,1.99810135 L0,6.00189865 C0,7.10541955 0.886706352,8 1.99810135,8 L6.00189865,8 C7.10541955,8 8,7.11329365 8,6.00189865 L8,1.99810135 C8,0.894580447 7.11329365,0 6.00189865,0 L1.99810135,0 C0.894580447,0 0,0.886706352 0,1.99810135 Z M12,1.99810135 L12,6.00189865 C12,7.10541955 12.8867064,8 13.9981014,8 L18.0018986,8 C19.1054196,8 20,7.11329365 20,6.00189865 L20,1.99810135 C20,0.894580447 19.1132936,0 18.0018986,0 L13.9981014,0 C12.8945804,0 12,0.886706352 12,1.99810135 Z M24,1.99810135 L24,6.00189865 C24,7.10541955 24.8867064,8 25.9981014,8 L30.0018986,8 C31.1054196,8 32,7.11329365 32,6.00189865 L32,1.99810135 C32,0.894580447 31.1132936,0 30.0018986,0 L25.9981014,0 C24.8945804,0 24,0.886706352 24,1.99810135 Z M0,13.9981014 L0,18.0018986 C0,19.1054196 0.886706352,20 1.99810135,20 L6.00189865,20 C7.10541955,20 8,19.1132936 8,18.0018986 L8,13.9981014 C8,12.8945804 7.11329365,12 6.00189865,12 L1.99810135,12 C0.894580447,12 0,12.8867064 0,13.9981014 Z M12,13.9981014 L12,18.0018986 C12,19.1054196 12.8867064,20 13.9981014,20 L18.0018986,20 C19.1054196,20 20,19.1132936 20,18.0018986 L20,13.9981014 C20,12.8945804 19.1132936,12 18.0018986,12 L13.9981014,12 C12.8945804,12 12,12.8867064 12,13.9981014 Z M24,13.9981014 L24,18.0018986 C24,19.1054196 24.8867064,20 25.9981014,20 L30.0018986,20 C31.1054196,20 32,19.1132936 32,18.0018986 L32,13.9981014 C32,12.8945804 31.1132936,12 30.0018986,12 L25.9981014,12 C24.8945804,12 24,12.8867064 24,13.9981014 Z M0,25.9981014 C0,24.8867064 0.894580447,24 1.99810135,24 L6.00189865,24 C7.11329365,24 8,24.8945804 8,25.9981014 L8,30.0018986 C8,31.1132936 7.10541955,32 6.00189865,32 L1.99810135,32 C0.886706352,32 0,31.1054196 0,30.0018986 L0,25.9981014 Z" id="Rectangle-571" stroke="none"></path>
        </g>
    </g>
</svg>